<mxfile host="app.diagrams.net" modified="2021-06-08T03:36:17.979Z" agent="5.0 (Windows NT 10.0; Win64; x64) AppleWebKit/537.36 (KHTML, like Gecko) Chrome/90.0.4430.212 Safari/537.36" etag="zHbbMvHW011rJ_0cYMcY" version="14.7.6" type="github">
  <diagram id="Bzte67FJccBrfgs35Zd1" name="Page-1">
    <mxGraphModel dx="981" dy="486" grid="1" gridSize="10" guides="1" tooltips="1" connect="1" arrows="1" fold="1" page="1" pageScale="1" pageWidth="850" pageHeight="1100" math="0" shadow="0">
      <root>
        <mxCell id="0" />
        <mxCell id="1" parent="0" />
        <mxCell id="3mGGlR-5hpcBCvtwsq1t-89" style="edgeStyle=orthogonalEdgeStyle;rounded=0;orthogonalLoop=1;jettySize=auto;html=1;exitX=1;exitY=0.5;exitDx=0;exitDy=0;entryX=0;entryY=0.5;entryDx=0;entryDy=0;" edge="1" parent="1" source="3LYyahFSkD6L8Gk7V9NC-2" target="H37p9VWMMfyOJq5Xj7EY-1">
          <mxGeometry relative="1" as="geometry" />
        </mxCell>
        <mxCell id="3LYyahFSkD6L8Gk7V9NC-2" value="&lt;font style=&quot;font-size: 12px&quot;&gt;&lt;span style=&quot;text-align: left&quot;&gt;Google Street View&amp;nbsp;&lt;/span&gt;&lt;span style=&quot;text-align: left&quot;&gt;(GSV)&lt;/span&gt;&lt;span style=&quot;text-align: left&quot;&gt;&lt;br&gt;&amp;nbsp;images&amp;nbsp;&lt;/span&gt;&lt;/font&gt;" style="rounded=1;whiteSpace=wrap;html=1;fontFamily=Helvetica;fontStyle=1;spacing=4;" parent="1" vertex="1">
          <mxGeometry x="80" y="210" width="90" height="45" as="geometry" />
        </mxCell>
        <mxCell id="3mGGlR-5hpcBCvtwsq1t-52" style="edgeStyle=orthogonalEdgeStyle;rounded=0;orthogonalLoop=1;jettySize=auto;html=1;exitX=0.5;exitY=1;exitDx=0;exitDy=0;entryX=0.5;entryY=0;entryDx=0;entryDy=0;" edge="1" parent="1" source="H37p9VWMMfyOJq5Xj7EY-1" target="H37p9VWMMfyOJq5Xj7EY-3">
          <mxGeometry relative="1" as="geometry" />
        </mxCell>
        <mxCell id="3mGGlR-5hpcBCvtwsq1t-63" style="edgeStyle=orthogonalEdgeStyle;rounded=0;orthogonalLoop=1;jettySize=auto;html=1;exitX=1;exitY=0.5;exitDx=0;exitDy=0;entryX=0;entryY=0.5;entryDx=0;entryDy=0;" edge="1" parent="1" source="H37p9VWMMfyOJq5Xj7EY-1" target="H37p9VWMMfyOJq5Xj7EY-4">
          <mxGeometry relative="1" as="geometry" />
        </mxCell>
        <mxCell id="H37p9VWMMfyOJq5Xj7EY-1" value="&lt;font style=&quot;font-size: 12px&quot;&gt;Google&amp;nbsp;&lt;br&gt;contributed GSV?&lt;/font&gt;" style="rhombus;whiteSpace=wrap;html=1;spacing=4;labelPosition=center;verticalLabelPosition=middle;align=center;verticalAlign=middle;fillColor=#dae8fc;strokeColor=#6c8ebf;fontFamily=Helvetica;fontStyle=1;spacingBottom=9;" parent="1" vertex="1">
          <mxGeometry x="187.5" y="202.5" width="135" height="60" as="geometry" />
        </mxCell>
        <mxCell id="H37p9VWMMfyOJq5Xj7EY-3" value="&lt;div style=&quot;text-align: left&quot;&gt;&lt;font style=&quot;font-size: 12px&quot;&gt;Exclude user contributed GSV (0.5%)&lt;/font&gt;&lt;/div&gt;" style="rounded=1;whiteSpace=wrap;html=1;fillColor=#f8cecc;strokeColor=#b85450;fontFamily=Helvetica;fontStyle=1;spacingTop=7;spacingBottom=12;spacingLeft=5;spacing=4;" parent="1" vertex="1">
          <mxGeometry x="201.25" y="277" width="107.5" height="43" as="geometry" />
        </mxCell>
        <mxCell id="3mGGlR-5hpcBCvtwsq1t-65" style="edgeStyle=orthogonalEdgeStyle;rounded=0;orthogonalLoop=1;jettySize=auto;html=1;exitX=0.5;exitY=1;exitDx=0;exitDy=0;entryX=0;entryY=0.5;entryDx=0;entryDy=0;" edge="1" parent="1" source="H37p9VWMMfyOJq5Xj7EY-4" target="3mGGlR-5hpcBCvtwsq1t-4">
          <mxGeometry relative="1" as="geometry" />
        </mxCell>
        <mxCell id="3mGGlR-5hpcBCvtwsq1t-82" style="edgeStyle=orthogonalEdgeStyle;rounded=0;orthogonalLoop=1;jettySize=auto;html=1;exitX=0.5;exitY=0;exitDx=0;exitDy=0;entryX=0;entryY=0.5;entryDx=0;entryDy=0;" edge="1" parent="1" source="H37p9VWMMfyOJq5Xj7EY-4" target="H37p9VWMMfyOJq5Xj7EY-19">
          <mxGeometry relative="1" as="geometry" />
        </mxCell>
        <mxCell id="H37p9VWMMfyOJq5Xj7EY-4" value="&lt;span style=&quot;text-align: left&quot;&gt;&lt;font style=&quot;font-size: 12px&quot;&gt;Text detection&lt;/font&gt;&lt;/span&gt;" style="rounded=1;whiteSpace=wrap;html=1;fillColor=#e1d5e7;strokeColor=#9673a6;fontFamily=Helvetica;fontStyle=1;spacing=4;" parent="1" vertex="1">
          <mxGeometry x="340" y="211.63" width="60" height="42.5" as="geometry" />
        </mxCell>
        <mxCell id="H37p9VWMMfyOJq5Xj7EY-17" value="Yes" style="text;html=1;align=center;verticalAlign=middle;resizable=0;points=[];autosize=1;fontFamily=Helvetica;fontStyle=1;spacing=4;" parent="1" vertex="1">
          <mxGeometry x="300" y="202.5" width="40" height="30" as="geometry" />
        </mxCell>
        <mxCell id="3mGGlR-5hpcBCvtwsq1t-83" style="edgeStyle=orthogonalEdgeStyle;rounded=0;orthogonalLoop=1;jettySize=auto;html=1;exitX=1;exitY=0.5;exitDx=0;exitDy=0;entryX=0;entryY=0.5;entryDx=0;entryDy=0;" edge="1" parent="1" source="H37p9VWMMfyOJq5Xj7EY-19" target="H37p9VWMMfyOJq5Xj7EY-41">
          <mxGeometry relative="1" as="geometry" />
        </mxCell>
        <mxCell id="H37p9VWMMfyOJq5Xj7EY-19" value="&lt;font style=&quot;font-size: 12px&quot;&gt;Group by text&lt;/font&gt;" style="rounded=1;whiteSpace=wrap;html=1;fillColor=#e1d5e7;strokeColor=#9673a6;fontFamily=Helvetica;fontStyle=1;spacing=4;" parent="1" vertex="1">
          <mxGeometry x="400" y="162.19" width="70" height="45" as="geometry" />
        </mxCell>
        <mxCell id="H37p9VWMMfyOJq5Xj7EY-20" value="&lt;span style=&quot;text-align: left&quot;&gt;&lt;font style=&quot;font-size: 13px&quot;&gt;High quality GSV&lt;/font&gt;&lt;/span&gt;" style="rounded=1;whiteSpace=wrap;html=1;fillColor=#d5e8d4;strokeColor=#82b366;fontFamily=Helvetica;fontStyle=1;spacing=4;" parent="1" vertex="1">
          <mxGeometry x="767.5" y="222.5" width="127.5" height="25" as="geometry" />
        </mxCell>
        <mxCell id="3mGGlR-5hpcBCvtwsq1t-86" style="edgeStyle=orthogonalEdgeStyle;rounded=0;orthogonalLoop=1;jettySize=auto;html=1;exitX=1;exitY=0.5;exitDx=0;exitDy=0;entryX=0;entryY=0.5;entryDx=0;entryDy=0;" edge="1" parent="1" source="H37p9VWMMfyOJq5Xj7EY-21" target="H37p9VWMMfyOJq5Xj7EY-27">
          <mxGeometry relative="1" as="geometry" />
        </mxCell>
        <mxCell id="3mGGlR-5hpcBCvtwsq1t-92" style="edgeStyle=orthogonalEdgeStyle;rounded=0;orthogonalLoop=1;jettySize=auto;html=1;exitX=0.5;exitY=1;exitDx=0;exitDy=0;entryX=0;entryY=0.75;entryDx=0;entryDy=0;" edge="1" parent="1" source="H37p9VWMMfyOJq5Xj7EY-21" target="H37p9VWMMfyOJq5Xj7EY-20">
          <mxGeometry relative="1" as="geometry" />
        </mxCell>
        <mxCell id="H37p9VWMMfyOJq5Xj7EY-21" value="Repetitive text/signs?&amp;nbsp;" style="rhombus;whiteSpace=wrap;html=1;spacing=4;labelPosition=center;verticalLabelPosition=middle;align=center;verticalAlign=middle;fillColor=#dae8fc;strokeColor=#6c8ebf;fontFamily=Helvetica;fontStyle=1;spacingBottom=10;" parent="1" vertex="1">
          <mxGeometry x="655" y="151.1" width="90" height="67.19" as="geometry" />
        </mxCell>
        <mxCell id="H37p9VWMMfyOJq5Xj7EY-27" value="&lt;span style=&quot;text-align: left&quot;&gt;&lt;font style=&quot;font-size: 12px&quot;&gt;Exclude GSV with repetitive text (0.6%)&lt;/font&gt;&lt;/span&gt;" style="rounded=1;whiteSpace=wrap;html=1;fillColor=#f8cecc;strokeColor=#b85450;fontFamily=Helvetica;fontStyle=1;spacing=4;" parent="1" vertex="1">
          <mxGeometry x="780" y="158.44" width="90" height="52.5" as="geometry" />
        </mxCell>
        <mxCell id="3mGGlR-5hpcBCvtwsq1t-81" style="edgeStyle=orthogonalEdgeStyle;rounded=0;orthogonalLoop=1;jettySize=auto;html=1;exitX=1;exitY=0.5;exitDx=0;exitDy=0;entryX=0;entryY=0.5;entryDx=0;entryDy=0;" edge="1" parent="1" source="H37p9VWMMfyOJq5Xj7EY-41" target="H37p9VWMMfyOJq5Xj7EY-21">
          <mxGeometry relative="1" as="geometry" />
        </mxCell>
        <mxCell id="H37p9VWMMfyOJq5Xj7EY-41" value="&lt;font style=&quot;font-size: 12px&quot;&gt;&lt;span id=&quot;docs-internal-guid-7e072b07-7fff-873d-4432-b9989f86bfab&quot;&gt;&lt;span style=&quot;background-color: transparent ; vertical-align: baseline&quot;&gt;Density-based spatial clustering of applications with noise (&lt;/span&gt;&lt;/span&gt;&lt;span&gt;DBSCAN)&lt;/span&gt;&lt;/font&gt;" style="rounded=1;whiteSpace=wrap;html=1;fillColor=#e1d5e7;strokeColor=#9673a6;fontFamily=Helvetica;fontStyle=1;spacing=4;" parent="1" vertex="1">
          <mxGeometry x="485" y="160.32" width="160" height="46.87" as="geometry" />
        </mxCell>
        <mxCell id="3mGGlR-5hpcBCvtwsq1t-67" style="edgeStyle=orthogonalEdgeStyle;rounded=0;orthogonalLoop=1;jettySize=auto;html=1;exitX=1;exitY=0.5;exitDx=0;exitDy=0;entryX=0;entryY=0.5;entryDx=0;entryDy=0;" edge="1" parent="1" source="3mGGlR-5hpcBCvtwsq1t-1" target="3mGGlR-5hpcBCvtwsq1t-3">
          <mxGeometry relative="1" as="geometry" />
        </mxCell>
        <mxCell id="3mGGlR-5hpcBCvtwsq1t-1" value="&lt;div&gt;&lt;font style=&quot;font-size: 12px&quot; color=&quot;#1a1a1a&quot;&gt;Non-Metric Space Library (NMSLIB)&lt;/font&gt;&lt;/div&gt;" style="rounded=1;whiteSpace=wrap;html=1;fillColor=#e1d5e7;strokeColor=#9673a6;fontFamily=Helvetica;fontStyle=1;spacing=4;" vertex="1" parent="1">
          <mxGeometry x="505" y="274.84000000000003" width="120" height="36.57" as="geometry" />
        </mxCell>
        <mxCell id="3mGGlR-5hpcBCvtwsq1t-2" value="&lt;span style=&quot;text-align: left&quot;&gt;&lt;font style=&quot;font-size: 12px&quot;&gt;Exclude GSV with traffic/street signs (0.9%)&lt;/font&gt;&lt;/span&gt;" style="rounded=1;whiteSpace=wrap;html=1;fillColor=#f8cecc;strokeColor=#b85450;fontFamily=Helvetica;fontStyle=1;spacing=4;" vertex="1" parent="1">
          <mxGeometry x="771.25" y="269.07" width="120" height="48.12" as="geometry" />
        </mxCell>
        <mxCell id="3mGGlR-5hpcBCvtwsq1t-87" style="edgeStyle=orthogonalEdgeStyle;rounded=0;orthogonalLoop=1;jettySize=auto;html=1;exitX=1;exitY=0.5;exitDx=0;exitDy=0;entryX=0;entryY=0.5;entryDx=0;entryDy=0;" edge="1" parent="1" source="3mGGlR-5hpcBCvtwsq1t-3" target="3mGGlR-5hpcBCvtwsq1t-2">
          <mxGeometry relative="1" as="geometry" />
        </mxCell>
        <mxCell id="3mGGlR-5hpcBCvtwsq1t-94" style="edgeStyle=orthogonalEdgeStyle;rounded=0;orthogonalLoop=1;jettySize=auto;html=1;exitX=0.5;exitY=0;exitDx=0;exitDy=0;entryX=0;entryY=0.75;entryDx=0;entryDy=0;" edge="1" parent="1" source="3mGGlR-5hpcBCvtwsq1t-3" target="H37p9VWMMfyOJq5Xj7EY-20">
          <mxGeometry relative="1" as="geometry" />
        </mxCell>
        <mxCell id="3mGGlR-5hpcBCvtwsq1t-3" value="&amp;nbsp;&lt;br&gt;street/road signs?" style="rhombus;whiteSpace=wrap;html=1;spacing=4;labelPosition=center;verticalLabelPosition=middle;align=center;verticalAlign=middle;fillColor=#dae8fc;strokeColor=#6c8ebf;fontFamily=Helvetica;fontStyle=1;spacingBottom=10;" vertex="1" parent="1">
          <mxGeometry x="655" y="262.5" width="90" height="62.5" as="geometry" />
        </mxCell>
        <mxCell id="3mGGlR-5hpcBCvtwsq1t-66" style="edgeStyle=orthogonalEdgeStyle;rounded=0;orthogonalLoop=1;jettySize=auto;html=1;exitX=1;exitY=0.5;exitDx=0;exitDy=0;entryX=0;entryY=0.5;entryDx=0;entryDy=0;" edge="1" parent="1" source="3mGGlR-5hpcBCvtwsq1t-4" target="3mGGlR-5hpcBCvtwsq1t-1">
          <mxGeometry relative="1" as="geometry" />
        </mxCell>
        <mxCell id="3mGGlR-5hpcBCvtwsq1t-4" value="&lt;font style=&quot;font-size: 12px&quot;&gt;Match GSV w/ street names in San Diego&lt;/font&gt;" style="rounded=1;whiteSpace=wrap;html=1;fillColor=#e1d5e7;strokeColor=#9673a6;fontFamily=Helvetica;fontStyle=1;spacing=4;" vertex="1" parent="1">
          <mxGeometry x="400" y="266.24999999999994" width="90" height="53.75" as="geometry" />
        </mxCell>
        <mxCell id="3mGGlR-5hpcBCvtwsq1t-42" value="Yes" style="text;html=1;align=center;verticalAlign=middle;resizable=0;points=[];autosize=1;fontFamily=Helvetica;fontStyle=1;spacing=4;" vertex="1" parent="1">
          <mxGeometry x="740" y="160.32" width="40" height="30" as="geometry" />
        </mxCell>
        <mxCell id="3mGGlR-5hpcBCvtwsq1t-64" value="No" style="text;html=1;align=center;verticalAlign=middle;resizable=0;points=[];autosize=1;fontFamily=Helvetica;fontStyle=1;spacing=4;" vertex="1" parent="1">
          <mxGeometry x="220" y="249.5" width="40" height="30" as="geometry" />
        </mxCell>
        <mxCell id="3mGGlR-5hpcBCvtwsq1t-71" value="Yes" style="text;html=1;align=center;verticalAlign=middle;resizable=0;points=[];autosize=1;fontFamily=Helvetica;fontStyle=1;spacing=4;" vertex="1" parent="1">
          <mxGeometry x="731.25" y="290" width="40" height="30" as="geometry" />
        </mxCell>
        <mxCell id="3mGGlR-5hpcBCvtwsq1t-75" value="No" style="text;html=1;align=center;verticalAlign=middle;resizable=0;points=[];autosize=1;fontFamily=Helvetica;fontStyle=1;spacing=4;" vertex="1" parent="1">
          <mxGeometry x="700" y="218.29" width="40" height="30" as="geometry" />
        </mxCell>
      </root>
    </mxGraphModel>
  </diagram>
</mxfile>
